<svg xmlns="http://www.w3.org/2000/svg" width="10" height="18" viewBox="0 0 10 18">
  <path fill="#1856ED" fill-rule="evenodd" d="M7.2694559,10.218357 L0.454073023,16.9385997 C-0.151357674,17.5263259 -0.151357674,18.4487559 0.454073023,19.0460541 L7.2694559,25.7659778 C7.8748866,26.3629569 8.72786111,26.4985615 9.33329181,25.8926484 L9.58989605,25.6482411 C10.0671864,25.1055038 10.1772059,24.4724698 9.65428981,24.0021613 C7.97584564,22.3471476 6.30613832,20.6918148 4.62769416,19.0368011 C4.03164747,18.4487559 4.03164747,17.5263259 4.62769416,16.9385997 C6.30613832,15.2832669 7.97584564,13.6282532 9.65428981,11.9821734 C10.1772059,11.5026119 10.0671864,10.8695779 9.58989605,10.3360937 L9.33329181,10.0827524 C8.72786111,9.47683937 7.8748866,9.61244393 7.2694559,10.218357" transform="matrix(-1 0 0 1 10 -9)"/>
</svg>
