<svg xmlns="http://www.w3.org/2000/svg" width="249" height="43" viewBox="0 0 249 43">
  <g fill="none" fill-rule="evenodd">
    <path fill="#FFF" d="M121.320405 13.4823588C120.965348 12.9375296 120.48296 12.8450923 119.846918 13.2025982 118.878469 13.7553856 117.667601 14.0724884 116.525296 14.0724884 113.200614 14.0724884 110.878662 11.7695137 110.878662 8.47237878 110.878662 5.175856 113.200614 2.87349348 116.525296 2.87349348 117.667601 2.87349348 118.878469 3.19059632 119.84753 3.74399587 120.483572 4.10088961 120.964736 4.00722796 121.319181 3.46484743L121.691379 2.9298129C122.065413 2.35559965 121.978486 1.845664 121.436717 1.4520402 119.96323.478081474 118.402202.0244652473 116.525296.0244652473 113.88869.0244652473 111.629179.893743307 109.992243 2.53680127 108.458151 4.07701507 107.61336 6.18470828 107.61336 8.47237878 107.61336 10.7606614 108.458151 12.8683547 109.992243 14.4085685 111.629792 16.0522386 113.88869 16.9209045 116.525296 16.9209045 118.439544 16.9209045 120.037914 16.4379042 121.55609 15.3990557 122.021337 15.0556297 122.066638 14.5909944 121.690155 14.0137203L121.320405 13.4823588zM129.157804 4.47498526C125.551525 4.47498526 122.726983 7.20831381 122.726983 10.6976694 122.726983 14.1876372 125.551525 16.9209657 129.157804 16.9209657 132.777551 16.9209657 135.6125 14.1876372 135.6125 10.6976694 135.6125 7.2670819 132.716947 4.47498526 129.157804 4.47498526M129.157804 7.13852669C131.06287 7.13852669 132.555335 8.71179755 132.555335 10.7209318 132.555335 12.7037428 131.06287 14.2568121 129.157804 14.2568121 127.252738 14.2568121 125.760274 12.7037428 125.760274 10.7209318 125.760274 8.71179755 127.252738 7.13852669 129.157804 7.13852669M144.373231 4.47498526C142.683648 4.47498526 141.347286 5.22611496 140.720427 6.50370884L140.720427 5.80644989C140.720427 5.13245331 140.318232 4.73025917 139.644236 4.73025917L138.624365 4.73025917C137.96506 4.73025917 137.571436 5.13245331 137.571436 5.80644989L137.571436 15.6121513C137.571436 16.2818627 137.955265 16.6656918 138.624365 16.6656918L139.644236 16.6656918C140.318232 16.6656918 140.720427 16.272068 140.720427 15.6121513L140.720427 10.8372436C140.720427 9.55781324 141.338716 7.13852669 143.677809 7.13852669 144.967646 7.13852669 145.707756 8.18227253 145.707756 10.0022469L145.707756 15.6121513C145.707756 16.2818627 146.091586 16.6656918 146.760685 16.6656918L147.780556 16.6656918C148.454553 16.6656918 148.857359 16.272068 148.857359 15.6121513L148.857359 9.86389706C148.857359 6.48962899 147.180632 4.47498526 144.373231 4.47498526M172.145869 4.73025917L171.125998 4.73025917C170.466693 4.73025917 170.07307 5.13245331 170.07307 5.80644989L170.07307 6.32740456C169.144411 5.11470045 167.798255 4.47498526 166.164991 4.47498526 162.787662 4.47498526 160.336543 7.09200195 160.336543 10.6976694 160.336543 14.303949 162.787662 16.9209657 166.164991 16.9209657 167.798255 16.9209657 169.143799 16.2818627 170.07307 15.0691586L170.07307 15.6121513C170.07307 16.2818627 170.456899 16.6656918 171.125998 16.6656918L172.145869 16.6656918C172.820478 16.6656918 173.22206 16.272068 173.22206 15.6121513L173.22206 5.80644989C173.22206 5.13245331 172.820478 4.73025917 172.145869 4.73025917M166.744714 14.2812988C164.826181 14.2812988 163.486146 12.8071991 163.486146 10.6976694 163.486146 8.58875185 164.826181 7.11526432 166.744714 7.11526432 168.707936 7.11526432 170.095108 8.58813968 170.118982 10.6976694 170.095108 12.8071991 168.707936 14.2812988 166.744714 14.2812988M182.15126 7.13828183C182.559575 7.13828183 183.363352 7.19766209 184.156721 7.59373456 184.813577 7.9090009 185.251889 7.82452176 185.621026 7.31703478L185.900174 6.96809922C186.117494 6.68711427 186.204422 6.39572247 186.151775 6.12575654 186.100965 5.86925829 185.926498 5.64642927 185.645513 5.48359268 184.232017 4.65043251 182.87729 4.47474039 181.989035 4.47474039 177.984234 4.47474039 175.186628 7.07277989 175.186628 10.790474 175.186628 14.3998145 177.984234 16.9207208 181.989035 16.9207208 182.827093 16.9207208 184.093668 16.7744128 185.363915 16.0783781 185.767334 15.869629 186.021383 15.5910927 186.09668 15.2721534 186.16157 15.0003509 186.093619 14.7175295 185.900786 14.4518487L185.623475 14.0827116C185.275151 13.5935897 184.808679 13.5133957 184.156721 13.824989 183.24153 14.2590159 182.325727 14.2810539 182.15126 14.2810539 179.940722 14.2810539 178.336843 12.7738972 178.336843 10.6974245 178.336843 8.63503172 179.940722 7.13828183 182.15126 7.13828183M196.501938 14.583526L195.728159 13.6291566C195.61001 13.4834607 195.482067 13.4075519 195.348615 13.4014302 195.198634 13.3953086 195.038858 13.469993 194.880306 13.648746 194.848474 13.6842517 194.814804 13.7117992 194.78236 13.7442441L194.781747 13.7430198C194.672169 13.8672898 194.301808 14.1629668 193.85064 14.2762178 193.846967 14.27683 193.843294 14.2780543 193.839621 14.2792787 193.68964 14.3160087 193.530477 14.3325372 193.369477 14.3153965 192.687522 14.2425486 192.34532 13.7846472 192.34532 12.8921068L192.34532 7.17690961 195.187002 7.17690961C195.576341 7.17690961 195.799782 6.95346841 195.799782 6.56351762L195.799782 5.35938386C195.799782 4.98045209 195.56471 4.74599188 195.187002 4.74599188L192.34532 4.74599188 192.34532 3.7163259 192.344096 3.7163259 192.344096 2.55871687C192.344096 1.89941232 191.966388 1.52109271 191.307084 1.52109271L190.301905 1.52109271C189.637703 1.52109271 189.24163 1.909207 189.24163 2.55871687L189.24163 4.74599188 188.024029 4.74599188C187.645709 4.74599188 187.410637 4.98045209 187.410637 5.35938386L187.410637 6.56351762C187.410637 6.95346841 187.634078 7.17690961 188.024029 7.17690961L189.24163 7.17690961 189.24163 8.22187978 189.242242 8.22187978 189.242242 12.7770192C189.242242 16.3961544 191.74662 16.9366984 193.239085 16.9366984 193.746572 16.9366984 194.205085 16.8681356 194.621359 16.7505994 194.622584 16.7573333 194.62442 16.7640671 194.625645 16.770801 194.846637 16.7083599 195.066405 16.6189834 195.283113 16.504508 195.621641 16.3367741 195.911197 16.1194546 196.157288 15.8641807 196.276049 15.7454202 196.422969 15.5887052 196.558258 15.4130131 196.7566 15.1601879 196.737011 14.8730813 196.501938 14.583526M159.288512 14.583526L158.514732 13.6291566C158.396584 13.4834607 158.268641 13.4075519 158.135188 13.4014302 157.985207 13.3953086 157.825431 13.469993 157.66688 13.648746 157.635047 13.6842517 157.60199 13.7117992 157.568933 13.7442441 157.568933 13.743632 157.568321 13.743632 157.568321 13.7430198 157.459355 13.8672898 157.089606 14.1623546 156.638438 14.2756056 156.634765 14.27683 156.63048 14.2780543 156.625583 14.2792787 156.475602 14.3160087 156.31705 14.3325372 156.15605 14.3153965 155.474095 14.2425486 155.131894 13.7846472 155.131894 12.8921068L155.131894 7.17690961 157.973576 7.17690961C158.362915 7.17690961 158.586356 6.95346841 158.586356 6.56351762L158.586356 5.35938386C158.586356 4.98045209 158.351283 4.74599188 157.973576 4.74599188L155.131894 4.74599188 155.131894 3.7163259 155.131894 3.7163259 155.131894 2.55871687C155.131894 1.89941232 154.753574 1.52109271 154.094882 1.52109271L153.089702 1.52109271C152.425501 1.52109271 152.029428 1.909207 152.029428 2.55871687L152.029428 4.74599188 150.810602 4.74599188C150.432283 4.74599188 150.197823 4.98045209 150.197823 5.35938386L150.197823 6.56351762C150.197823 6.95346841 150.421264 7.17690961 150.810602 7.17690961L152.029428 7.17690961 152.029428 8.22187978 152.029428 12.7770192C152.029428 16.3961544 154.533194 16.9366984 156.026271 16.9366984 156.533145 16.9366984 156.991659 16.8681356 157.407933 16.7505994 157.409157 16.7573333 157.410994 16.7640671 157.412218 16.770801 157.632599 16.7083599 157.851755 16.6195956 158.06785 16.5057324 158.408215 16.3367741 158.699607 16.1188424 158.94631 15.861732 159.064459 15.7435837 159.210767 15.5874809 159.345444 15.4130131 159.543174 15.1601879 159.523584 14.8730813 159.288512 14.583526M13.7070458 13.4578936C13.3519886 12.9130644 12.8702126 12.820627 12.2335583 13.1781329 11.265109 13.7309203 10.0542414 14.0480232 8.91193661 14.0480232 5.58725412 14.0480232 3.26530223 11.7450485 3.26530223 8.44791353 3.26530223 5.15139075 5.58725412 2.84902823 8.91193661 2.84902823 10.0542414 2.84902823 11.265109 3.16613107 12.2341704 3.71953063 12.8702126 4.07642436 13.3519886 3.98276271 13.7058215 3.44038218L14.0780194 2.90534765C14.4520538 2.33174657 14.3657382 1.82119875 13.8233576 1.42757495 12.3498701.453616227 10.7888426 2.24568439e-13 8.91193661 2.24568439e-13 6.27533055 2.24568439e-13 4.01581977.869278059 2.37888348 2.51233602.844791353 4.05254983-2.21723228e-12 6.1608552-2.21723228e-12 8.44791353-2.21723228e-12 10.7361962.844791353 12.8438894 2.37888348 14.3841032 4.01581977 16.0277733 6.27533055 16.8964392 8.91193661 16.8964392 10.8261848 16.8964392 12.4245546 16.413439 13.9427303 15.3745905 14.4079777 15.0311644 14.4532782 14.5665292 14.0767951 13.9892551L13.7070458 13.4578936zM21.5450567 4.45058123C17.9387771 4.45058123 15.1136234 7.18390978 15.1136234 10.6732654 15.1136234 14.1632331 17.9387771 16.8965617 21.5450567 16.8965617 25.1641918 16.8965617 27.9991402 14.1632331 27.9991402 10.6732654 27.9991402 7.24267787 25.1035872 4.45058123 21.5450567 4.45058123M21.5450567 7.11412266C23.4501224 7.11412266 24.9425871 8.68800568 24.9425871 10.6965277 24.9425871 12.6793387 23.4501224 14.2324081 21.5450567 14.2324081 19.6393788 14.2324081 18.1475263 12.6793387 18.1475263 10.6965277 18.1475263 8.68800568 19.6393788 7.11412266 21.5450567 7.11412266M36.7601775 4.45058123C35.0705948 4.45058123 33.7342328 5.2023231 33.1073731 6.47930481L33.1073731 5.78265803C33.1073731 5.10804928 32.705179 4.70585514 32.0311824 4.70585514L31.0113111 4.70585514C30.3520066 4.70585514 29.9577706 5.10804928 29.9577706 5.78265803L29.9577706 15.5877472C29.9577706 16.2574586 30.3415997 16.6418999 31.0113111 16.6418999L32.0311824 16.6418999C32.705179 16.6418999 33.1073731 16.247664 33.1073731 15.5877472L33.1073731 10.8128396C33.1073731 9.53340921 33.7256625 7.11412266 36.064755 7.11412266 37.3545923 7.11412266 38.094703 8.1578685 38.094703 9.97784292L38.094703 15.5877472C38.094703 16.2574586 38.4785321 16.6418999 39.1476313 16.6418999L40.1675026 16.6418999C40.8414992 16.6418999 41.2443055 16.247664 41.2443055 15.5877472L41.2443055 9.83949303C41.2443055 6.46522496 39.5675783 4.45058123 36.7601775 4.45058123M49.0668898 9.67133058L47.4887216 9.11425802C46.7039227 8.86265711 46.3378464 8.51739456 46.3378464 8.03072128 46.3378464 7.3548882 46.8967555 6.88229478 47.6956343 6.88229478 48.2300566 6.88229478 48.6267413 7.04696787 48.9126235 7.38978176 49.3142055 7.81768694 49.6429395 8.01970226 50.2196015 7.87645503L50.7521873 7.73749298C51.1378529 7.64138266 51.4090432 7.43936733 51.5155604 7.16817707 51.6104464 6.92575868 51.5633095 6.6472224 51.3808835 6.36807395 50.6389363 5.09598958 49.3833805 4.45137705 47.6497217 4.45137705 45.1992146 4.45137705 43.4202554 6.0056707 43.4202554 8.14703313 43.4202554 9.7466272 44.492161 10.8870955 46.602915 11.5372176L48.1094596 12.0698034C48.9720038 12.3838454 49.308696 12.7076821 49.308696 13.2237394 49.308696 13.9295687 48.6108249 14.4419531 47.6497217 14.4419531 46.8814513 14.4419531 46.1762342 14.1407666 45.7617967 13.6345039 45.361439 13.1863972 45.0541309 12.9054123 44.4560431 13.0529447L43.8506093 13.1925189C43.4765748 13.2892414 43.2164036 13.4765647 43.0976431 13.7324507 42.9905137 13.963238 43.0088788 14.2399377 43.1502895 14.533166L43.1509016 14.5350025C43.9246816 16.0354254 45.5640665 16.8967453 47.6497217 16.8967453 50.8109554 16.8967453 52.226287 15.040653 52.226287 13.1992527 52.2060855 12.0398072 51.6416669 10.4873501 49.0668898 9.67133058M74.8093352 4.70585514L73.7894639 4.70585514C73.1301593 4.70585514 72.7365355 5.10804928 72.7365355 5.78265803L72.7365355 6.30238836C71.8078772 5.09029642 70.4623327 4.45058123 68.8284573 4.45058123 65.4511284 4.45058123 63.0000091 7.06759792 63.0000091 10.6732654 63.0000091 14.279545 65.4511284 16.8965617 68.8284573 16.8965617 70.4617205 16.8965617 71.8078772 16.2574586 72.7365355 15.0447545L72.7365355 15.5877472C72.7365355 16.2574586 73.1203646 16.6418999 73.7894639 16.6418999L74.8093352 16.6418999C75.4839439 16.6418999 75.8855259 16.247664 75.8855259 15.5877472L75.8855259 5.78265803C75.8855259 5.10804928 75.4839439 4.70585514 74.8093352 4.70585514M69.40818 14.2568948C67.4896466 14.2568948 66.1496116 12.7834072 66.1496116 10.6732654 66.1496116 8.56434782 67.4896466 7.09086029 69.40818 7.09086029 71.3714017 7.09086029 72.7585736 8.56373565 72.7824481 10.6732654 72.7585736 12.7834072 71.3714017 14.2568948 69.40818 14.2568948M85.4140378 4.45058123C83.7244551 4.45058123 82.3880931 5.2023231 81.7612334 6.47930481L81.7612334 5.78265803C81.7612334 5.10804928 81.3590393 4.70585514 80.6850427 4.70585514L79.6651714 4.70585514C79.0052547 4.70585514 78.6116309 5.10804928 78.6116309 5.78265803L78.6116309 15.5877472C78.6116309 16.2574586 78.99546 16.6418999 79.6651714 16.6418999L80.6850427 16.6418999C81.3590393 16.6418999 81.7612334 16.247664 81.7612334 15.5877472L81.7612334 10.8128396C81.7612334 9.53340921 82.3789106 7.11412266 84.7180032 7.11412266 86.0084526 7.11412266 86.7479511 8.1578685 86.7479511 9.97784292L86.7479511 15.5877472C86.7479511 16.2574586 87.1317802 16.6418999 87.8014916 16.6418999L88.8213629 16.6418999C89.4953595 16.6418999 89.8981658 16.247664 89.8981658 15.5877472L89.8981658 9.83949303C89.8981658 6.46522496 88.2214386 4.45058123 85.4140378 4.45058123M100.185276 14.5591219L99.4114959 13.6047526C99.2933475 13.4590567 99.1654045 13.3831479 99.031952 13.3770262 98.8819709 13.3709045 98.7221951 13.445589 98.5636437 13.6243419 98.531811 13.6598477 98.4981418 13.6873952 98.4656969 13.7198401 98.4650847 13.7198401 98.4650847 13.7192279 98.4650847 13.7186158 98.3555067 13.8428858 97.9851453 14.1385628 97.5339777 14.2518138 97.5303047 14.2530381 97.5266317 14.2536503 97.5229587 14.2548746 97.3729776 14.2916047 97.213814 14.3081332 97.0528139 14.2909925 96.3708592 14.2181446 96.0286575 13.7602432 96.0286575 12.8677027L96.0286575 7.15250558 98.8703397 7.15250558C99.2596783 7.15250558 99.4831195 6.92906438 99.4831195 6.53911359L99.4831195 5.33497983C99.4831195 4.95604806 99.2480471 4.72158785 98.8703397 4.72158785L96.0286575 4.72158785 96.0286575 3.69192186 96.0286575 2.53431284C96.0286575 1.87500829 95.6503379 1.49668868 94.9910333 1.49668868L93.985854 1.49668868C93.3222643 1.49668868 92.9255797 1.88480297 92.9255797 2.53431284L92.9255797 4.72158785 91.707366 4.72158785C91.3290464 4.72158785 91.0939741 4.95604806 91.0939741 5.33497983L91.0939741 6.53911359C91.0939741 6.92906438 91.3174153 7.15250558 91.707366 7.15250558L92.9255797 7.15250558 92.9255797 12.7526152C92.9255797 16.3717503 95.4299575 16.9122944 96.9224222 16.9122944 97.4299092 16.9122944 97.8884228 16.8437316 98.3046968 16.7261954 98.3059211 16.7329293 98.3077576 16.7396631 98.308982 16.7463969 98.5305866 16.6839558 98.7503548 16.5945794 98.9670622 16.480104 99.3055909 16.3117579 99.5951462 16.0950506 99.8406254 15.8391645 99.9593859 15.7210161 100.106306 15.5643012 100.241595 15.3886091 100.439938 15.1357839 100.420348 14.8486772 100.185276 14.5591219M62.1421174 14.5591219L61.3677253 13.6047526C61.2501891 13.4590567 61.1222461 13.3831479 60.9887935 13.3770262 60.8388124 13.3709045 60.6790367 13.445589 60.5204853 13.6243419 60.4880404 13.6598477 60.4549833 13.6873952 60.4225384 13.7198401L60.4219263 13.7186158C60.3123483 13.8428858 59.942599 14.1385628 59.4920436 14.2518138 59.4877584 14.2524259 59.4834733 14.2536503 59.4791881 14.2548746 59.329207 14.2916047 59.1706556 14.3081332 59.0096555 14.2909925 58.3277007 14.2181446 57.985499 13.7602432 57.985499 12.8677027L57.985499 7.15250558 60.8271812 7.15250558C61.2165199 7.15250558 61.4399611 6.92906438 61.4399611 6.53911359L61.4399611 5.33497983C61.4399611 4.95604806 61.2048887 4.72158785 60.8271812 4.72158785L57.985499 4.72158785 57.985499 3.69192186 57.9848869 3.69192186 57.9848869 2.53431284C57.9848869 1.87500829 57.6071794 1.49668868 56.9478749 1.49668868L55.9426956 1.49668868C55.2784937 1.49668868 54.8824212 1.88480297 54.8824212 2.53431284L54.8824212 4.72158785 53.6642076 4.72158785C53.285888 4.72158785 53.0508156 4.95604806 53.0508156 5.33497983L53.0508156 6.53911359C53.0508156 6.92906438 53.274869 7.15250558 53.6642076 7.15250558L54.8824212 7.15250558 54.8824212 8.19747575 54.8824212 12.7526152C54.8824212 16.3717503 57.3867991 16.9122944 58.879876 16.9122944 59.3867508 16.9122944 59.8452643 16.8437316 60.2615383 16.7261954 60.2627627 16.7329293 60.2645992 16.7396631 60.2658235 16.7463969 60.4862039 16.6839558 60.7047477 16.5951915 60.9202307 16.4813284 61.2612081 16.3129823 61.5525999 16.0944384 61.7999156 15.837328 61.918064 15.7191796 62.0643721 15.5630769 62.1984368 15.3886091 62.3961669 15.1357839 62.3771897 14.8486772 62.1421174 14.5591219" transform="translate(51.06 12.585)"/>
    <path fill="#FF9E1A" d="M29.6458712 19.0666791C28.520707 19.0666791 27.4671665 18.365135 27.0717062 17.2442561 26.7031813 16.2011224 25.8608386 15.3704109 24.5679405 14.7753839 23.1985215 14.1448513 22.5992094 12.5238313 23.2291299 11.1538001 23.8596626 9.78438111 25.4806825 9.18506898 26.8507137 9.81560166 29.4971144 11.0332031 31.3544311 12.9737745 32.2200361 15.4267303 32.7220136 16.8481836 31.9763934 18.4079868 30.5549401 18.9099642 30.2543658 19.0158692 29.9476698 19.0666791 29.6458712 19.0666791M39.2259276 19.066067C37.9256835 19.066067 36.773584 18.1343478 36.5403481 16.8083927 35.4825224 10.8024159 31.3093755 6.64702191 25.0909766 5.40738243 23.6119795 5.11354196 22.6521007 3.67556015 22.9465533 2.19717528 23.2416181.718178248 24.6795999-.240476287 26.1573726.0527520156 34.5783508 1.7313157 40.4704644 7.64118217 41.9176287 15.8619815 42.1796365 17.3464881 41.1879249 18.763044 39.7028062 19.0244396 39.5430304 19.0525993 39.3832546 19.066067 39.2259276 19.066067"/>
    <path fill="#FFF" d="M19.2318588,32.8081288 C13.7303082,32.8081288 9.25475049,28.3319589 9.25475049,22.8304083 C9.25475049,17.3294698 13.7303082,12.8533 19.2318588,12.8533 C20.7396277,12.8533 21.9615143,14.0757987 21.9615143,15.5835677 C21.9615143,17.0913366 20.7396277,18.3138354 19.2318588,18.3138354 C16.7409487,18.3138354 14.7146737,20.3401103 14.7146737,22.8304083 C14.7146737,25.3213184 16.7409487,27.3475933 19.2318588,27.3475933 C21.7221568,27.3475933 23.7484317,25.3213184 23.7484317,22.8304083 C23.7484317,21.3226394 24.9709305,20.1001406 26.4786994,20.1001406 C27.9864683,20.1001406 29.2089671,21.3226394 29.2089671,22.8304083 C29.2089671,28.3319589 24.7327973,32.8081288 19.2318588,32.8081288"/>
    <path fill="#FFF" d="M19.2318588,42.0623895 C8.62727865,42.0623895 8.02349499e-12,33.4351109 8.02349499e-12,22.8305307 C8.02349499e-12,12.2265627 8.62727865,3.5986719 19.2318588,3.5986719 C20.7396277,3.5986719 21.9615143,4.82117069 21.9615143,6.3289396 C21.9615143,7.83670852 20.7396277,9.05920731 19.2318588,9.05920731 C11.6379191,9.05920731 5.45992325,15.2372032 5.45992325,22.8305307 C5.45992325,30.4244704 11.6379191,36.6024663 19.2318588,36.6024663 C26.8251863,36.6024663 33.0037944,30.4244704 33.0037944,22.8305307 C33.0037944,21.3227618 34.225681,20.100263 35.7334499,20.100263 C37.2412188,20.100263 38.4637176,21.3227618 38.4637176,22.8305307 C38.4637176,33.4351109 29.836439,42.0623895 19.2318588,42.0623895"/>
  </g>
</svg>
