<svg xmlns="http://www.w3.org/2000/svg" width="114" height="114" viewBox="0 0 114 114">
  <g fill="none" fill-rule="evenodd" transform="translate(7 7)">
    <circle cx="49.834" cy="49.834" r="53.334" fill="#1856ED" stroke="#FFF" stroke-width="7"/>
    <path fill="#FFF" d="M1.63857189,0.235838152 C0.642457239,0.676619964 0,1.66371428 0,2.75297454 L0,24.7599471 C0,25.8492073 0.642457239,26.8363017 1.63857189,27.2773894 C1.99651235,27.4358383 2.37617399,27.5132275 2.7527763,27.5132275 C3.42429708,27.5132275 4.08725177,27.2672951 4.60427688,26.7980659 L22.3120922,15.7944267 C22.8866325,15.272891 23.2142857,14.5326467 23.2142857,13.7566138 C23.2142857,12.9802749 22.8866325,12.2403366 22.3120922,11.7184949 L4.60427688,0.714855721 C4.08725177,0.245626506 3.42429708,0 2.7527763,0 C2.37617399,0 1.99651235,0.077083287 1.63857189,0.235838152 Z" transform="translate(40.68 36.048)"/>
  </g>
</svg>
